<?xml version="1.0" encoding="UTF-8" standalone="no"?>
<!DOCTYPE svg PUBLIC "-//W3C//DTD SVG 1.1//EN" "http://www.w3.org/Graphics/SVG/1.1/DTD/svg11.dtd">
<svg width="100%" height="100%" viewBox="0 0 64 40" version="1.1" xmlns="http://www.w3.org/2000/svg" xmlns:xlink="http://www.w3.org/1999/xlink" xml:space="preserve" xmlns:serif="http://www.serif.com/" style="fill-rule:evenodd;clip-rule:evenodd;">
    <g id="Mail" transform="matrix(1,0,0,1,1,1)">
        <path id="Shape" d="M0,36C0,37.104 0.896,38 2,38L60,38C61.104,38 62,37.104 62,36L62,2C62,0.896 61.104,0 60,0L2,0C0.896,0 0,0.896 0,2L0,36Z" style="fill:none;fill-rule:nonzero;stroke:rgb(88,89,91);stroke-width:2px;"/>
        <path id="Shape_4_" d="M62,2C62,0.896 31,24.032 31,24.032C31,24.032 0,1.144 0,2" style="fill:none;fill-rule:nonzero;stroke:rgb(88,89,91);stroke-width:2px;"/>
        <path id="Shape_2_" d="M61,37L37,20" style="fill:none;fill-rule:nonzero;stroke:rgb(88,89,91);stroke-width:2px;"/>
        <path id="Shape_3_" d="M1,37L25,20" style="fill:none;fill-rule:nonzero;stroke:rgb(88,89,91);stroke-width:2px;"/>
        <g transform="matrix(0.712048,0,0,0.712048,-2.68126,-29.0704)">
            <text x="29.058px" y="54.634px" style="font-family:'ArialMT', 'Arial', sans-serif;font-size:11.235px;fill:rgb(226,23,23);">Lettres</text>
        </g>
        <g transform="matrix(0.856035,0,0,0.882791,16.1667,-17.5671)">
            <text x="-4.106px" y="60.194px" style="font-family:'ArialMT', 'Arial', sans-serif;font-size:8px;fill:rgb(226,23,23);">Précédentes</text>
        </g>
    </g>
</svg>
