<?xml version="1.0" encoding="UTF-8" standalone="no"?>
<!DOCTYPE svg PUBLIC "-//W3C//DTD SVG 1.1//EN" "http://www.w3.org/Graphics/SVG/1.1/DTD/svg11.dtd">
<svg width="100%" height="100%" viewBox="0 0 96 96" version="1.1" xmlns="http://www.w3.org/2000/svg" xmlns:xlink="http://www.w3.org/1999/xlink" xml:space="preserve" xmlns:serif="http://www.serif.com/" style="fill-rule:evenodd;clip-rule:evenodd;stroke-linejoin:round;stroke-miterlimit:2;">
    <path d="M80,12L16,12C9.373,12 4,17.373 4,24L4,72C4,78.627 9.373,84 16,84L80,84C86.627,84 92,78.627 92,72L92,24C92,17.373 86.627,12 80,12ZM80,20C80.462,20 80.906,20.078 81.318,20.223L48,46.878L14.682,20.223C15.094,20.078 15.538,20 16,20L80,20ZM80,76L16,76C13.791,76 12,74.209 12,72L12,28.322L45.501,55.123C46.231,55.708 47.115,56 48,56C48.885,56 49.769,55.708 50.499,55.123L84,28.322L84,72C84,74.209 82.209,76 80,76Z" style="fill:rgb(58,0,255);fill-rule:nonzero;"/>
    <g transform="matrix(0.969692,0,0,1,31.5633,8)">
        <text x="-15.336px" y="60.194px" style="font-family:'ArialMT', 'Arial', sans-serif;font-size:12px;fill:rgb(226,23,23);">Précédentes</text>
    </g>
    <g transform="matrix(0.712048,0,0,0.712048,15.3187,-8.07043)">
        <text x="20.471px" y="54.634px" style="font-family:'ArialMT', 'Arial', sans-serif;font-size:16.853px;fill:rgb(226,23,23);">Lettres</text>
    </g>
</svg>
