<?xml version="1.0" encoding="UTF-8" standalone="no"?>
<!DOCTYPE svg PUBLIC "-//W3C//DTD SVG 1.1//EN" "http://www.w3.org/Graphics/SVG/1.1/DTD/svg11.dtd">
<svg width="100%" height="100%" viewBox="0 0 1280 800" version="1.1" xmlns="http://www.w3.org/2000/svg" xmlns:xlink="http://www.w3.org/1999/xlink" xml:space="preserve" xmlns:serif="http://www.serif.com/" style="fill-rule:evenodd;clip-rule:evenodd;stroke-linecap:round;stroke-linejoin:round;stroke-miterlimit:1.5;">
    <g transform="matrix(0.90598,0,0,0.985225,85.301,2.32331)">
        <path d="M967.734,669.87L966.823,338.503L904.275,367.365L891.997,380.877L890.514,446.137" style="fill:none;stroke:black;stroke-width:7.4px;"/>
    </g>
    <g transform="matrix(0.0273775,0.771394,-0.714296,0.025351,1171.36,221.814)">
        <path d="M135.195,299.497L164.379,370.473L89.913,370.473L135.195,299.497Z" style="fill:rgb(33,10,10);stroke:black;stroke-width:5.38px;"/>
    </g>
    <g transform="matrix(-0.00462607,-0.775534,0.628174,-0.00374707,134.852,433.178)">
        <path d="M127.146,299.497L164.379,370.473L89.913,370.473L127.146,299.497Z" style="fill:rgb(33,10,10);stroke:black;stroke-width:5.67px;"/>
    </g>
    <g transform="matrix(1.91433,0.0348383,-0.0180636,0.992577,405.386,-242.96)">
        <path d="M127.146,299.497L164.379,370.473L89.913,370.473L127.146,299.497Z" style="fill:rgb(33,10,10);stroke:black;stroke-width:2.62px;"/>
    </g>
    <g id="Calque1">
    </g>
    <g transform="matrix(0.983677,0,0,1.01056,7.35674,-8.77642)">
        <path d="M318.537,665.59L341.569,449.785L947.575,448.054L970.947,674.897L318.025,672.194L320.629,341.979L378.463,371.661L388.558,380.433L392.425,390.996L394.731,449.633" style="fill:none;stroke:black;stroke-width:7.02px;"/>
    </g>
    <path d="M368.563,354.974L369.883,140.556L380.152,130.651L772.218,130.703L907.865,266.05L910.49,357.604" style="fill:none;stroke:black;stroke-width:7px;"/>
    <g transform="matrix(0.877185,0,0,0.877185,465.273,148.966)">
        <text x="51.233px" y="240.544px" style="font-family:'ArialMT', 'Arial', sans-serif;font-size:288px;">@</text>
    </g>
    <g transform="matrix(1,0,0,1,-68.7214,27.1855)">
        <text x="573.93px" y="506.263px" style="font-family:'ArialMT', 'Arial', sans-serif;font-size:96px;fill:rgb(197,33,33);">Lettres</text>
        <text x="456.485px" y="605.403px" style="font-family:'ArialMT', 'Arial', sans-serif;font-size:96px;fill:rgb(197,33,33);">précédentes</text>
    </g>
</svg>
