<?xml version="1.0" encoding="UTF-8" standalone="no"?>
<!DOCTYPE svg PUBLIC "-//W3C//DTD SVG 1.1//EN" "http://www.w3.org/Graphics/SVG/1.1/DTD/svg11.dtd">
<svg width="100%" height="100%" viewBox="0 0 512 512" version="1.1" xmlns="http://www.w3.org/2000/svg" xmlns:xlink="http://www.w3.org/1999/xlink" xml:space="preserve" xmlns:serif="http://www.serif.com/" style="fill-rule:evenodd;clip-rule:evenodd;stroke-linejoin:round;stroke-miterlimit:2;">
    <g transform="matrix(1,0,0,1,5,2)">
        <path d="M438.247,183.129L261.315,6.196L246.123,6.196L240.49,6.196L73.888,6.196L73.888,506L438.328,506L438.328,183.16L438.247,183.129ZM261.315,35.645L398.468,172.797L261.315,172.797L261.315,35.645ZM94.713,485.175L94.713,27.021L240.49,27.021L240.49,193.622L417.504,193.622L417.504,485.174L94.713,485.174L94.713,485.175Z" style="fill:rgb(55,64,77);fill-rule:nonzero;"/>
    </g>
    <g transform="matrix(1,0,0,1,4,75)">
        <text x="126.06px" y="287.054px" style="font-family:'ArialMT', 'Arial', sans-serif;font-size:36px;fill:rgb(153,153,51);">Décembre 2017</text>
        <text x="248.14px" y="324.231px" style="font-family:'ArialMT', 'Arial', sans-serif;font-size:36px;fill:rgb(153,153,51);">-</text>
        <text x="126.06px" y="361.409px" style="font-family:'ArialMT', 'Arial', sans-serif;font-size:36px;fill:rgb(153,153,51);">Décembre 2018</text>
    </g>
    <g transform="matrix(1,0,0,1,67,-32)">
        <text x="122px" y="274px" style="font-family:'ArialMT', 'Arial', sans-serif;font-size:36px;fill:rgb(153,153,51);">Rapport</text>
        <text x="122px" y="311.178px" style="font-family:'ArialMT', 'Arial', sans-serif;font-size:36px;fill:rgb(153,153,51);">d&apos;activité</text>
    </g>
</svg>
