<svg xmlns="http://www.w3.org/2000/svg" viewBox="0 0 85.39 109.77"><defs><style>.cls-1{fill:#e42321;}.cls-2{fill:#fff;}</style></defs><title>Fichier 4</title><g id="Calque_2" data-name="Calque 2"><g id="l_antivol" data-name="l&apos;antivol"><path class="cls-1" d="M45.22,0C16.61,0,6.9,18,6.14,31.17a12.46,12.46,0,0,0-.09,1.38,11.33,11.33,0,0,0,22.66.33h0s.2-10.21,16.6-10.21c17.16,0,17.38,10.2,17.38,10.2v7.52a.34.34,0,0,0-.07.17c0,2-1.36,7.47-6.48,7.47H27.83S0,46.49,0,76.19s22.22,33.58,29.7,33.58H54s8-1,9.38-7.47a11.33,11.33,0,0,0,22-3.86V32.87C85.39,19.71,76.53,0,45.22,0Z"/><path class="cls-2" d="M52.07,67.58A10.38,10.38,0,1,0,38,77.25L32.32,99H51.07l-5.63-21.7A10.36,10.36,0,0,0,52.07,67.58Z"/></g></g></svg>